<svg width="24" height="24" viewBox="0 0 24 24" fill="none" xmlns="http://www.w3.org/2000/svg">
<path d="M12 0C5.3833 0 0 5.3833 0 12C0 18.6167 5.3833 24 12 24C18.6167 24 24 18.6167 24 12C24 5.3833 18.6167 0 12 0ZM12 23C5.93457 23 1 18.0654 1 12C1 5.93457 5.93457 1 12 1C18.0654 1 23 5.93457 23 12C23 18.0654 18.0654 23 12 23Z" fill="white"/>
<path d="M2.8407 8C2.30304 9.2262 2 10.5776 2 12C2 16.049 4.42316 19.5359 7.89166 21.1071L3.27679 8H2.8407Z" fill="white"/>
<path d="M8 7.5C8 7.77637 7.77637 8 7.5 8H7.21155L10.0151 16.6973C10.5261 15.2402 11.0519 13.726 11.4599 12.5168L9.86957 8H9.5C9.22363 8 9 7.77637 9 7.5C9 7.22363 9.22363 7 9.5 7H14C14.2764 7 14.5 7.22363 14.5 7.5C14.5 7.77637 14.2764 8 14 8H13.8043L16.6079 16.6973C17.189 15.041 17.793 13.3003 18.2158 12.0308C18.4077 11.0713 17.6631 9.86572 17.002 8.7959C16.4878 7.96338 16.0435 7.24414 16.0435 6.63037C16.0435 4.75781 17.1333 4.47803 17.7827 4.47803C18.1742 4.47803 18.5322 4.58276 18.8612 4.74438C17.0685 3.04828 14.6569 2 12 2C8.30817 2 5.08521 4.01605 3.35297 7H7.5C7.77637 7 8 7.22363 8 7.5Z" fill="white"/>
<path d="M9.33148 21.6275C10.1825 21.8638 11.0748 22 12 22C12.925 22 13.817 21.8638 14.6677 21.6277L11.9968 14.0417C11.0416 16.8227 9.77118 20.3947 9.33148 21.6275Z" fill="white"/>
<path d="M20.1228 6.18945C20.5316 7.46844 20.03 9.64551 19.4985 11.3247C19.4121 11.5986 19.3047 11.9268 19.1821 12.2954C19.1704 12.3457 19.1572 12.396 19.1421 12.4463C19.1309 12.4849 19.1147 12.5215 19.0952 12.5552C18.2435 15.0949 16.7739 19.2416 16.1101 21.1062C19.5777 19.5346 22 16.0483 22 12C22 9.83228 21.2993 7.82928 20.1228 6.18945Z" fill="white"/>
<path d="M12 0C5.3833 0 0 5.3833 0 12C0 18.6167 5.3833 24 12 24C18.6167 24 24 18.6167 24 12C24 5.3833 18.6167 0 12 0Z" fill="url(#paint0_linear_463:2)"/>
<defs>
<linearGradient id="paint0_linear_463:2" x1="1.12492" y1="6.92887" x2="22.8751" y2="17.0711" gradientUnits="userSpaceOnUse">
<stop stop-color="white" stop-opacity="0.2"/>
<stop offset="1" stop-color="white" stop-opacity="0"/>
</linearGradient>
</defs>
</svg>
